<svg xmlns="http://www.w3.org/2000/svg" width="640" height="639.001" viewBox="0 0 640 639.001"><defs><style>.a{fill:#f1f1e7;}.b{fill:#03e2f8;}.c{fill:#f8f803;}.d{fill:#f80365;}.e{fill:#03f875;}</style></defs><g transform="translate(-640 -160.235)"><path class="a" d="M0,0H160V160H0Z" transform="translate(960 479.49)"/><path class="b" d="M160,0h0a0,0,0,0,1,0,0V160a0,0,0,0,1,0,0H0a0,0,0,0,1,0,0v0A160,160,0,0,1,160,0Z" transform="translate(960 320.235) rotate(-90)"/><path class="c" d="M37,160H0A159.949,159.949,0,0,1,160,0V43h-6A117.132,117.132,0,0,0,37,160Z" transform="translate(1280 320.235) rotate(180)"/><path class="d" d="M160,0h0a0,0,0,0,1,0,0V160a0,0,0,0,1,0,0H0a0,0,0,0,1,0,0v0A160,160,0,0,1,160,0Z" transform="translate(800 320.235)"/><path class="c" d="M160,0h0a0,0,0,0,1,0,0V160a0,0,0,0,1,0,0H0a0,0,0,0,1,0,0v0A160,160,0,0,1,160,0Z" transform="translate(640 639.235)"/><g transform="translate(959 319.745)"><path class="e" d="M160,160H0V0H160V160ZM78.5,50.5C60.58,50.5,46,64.182,46,81s14.58,30.5,32.5,30.5S111,97.818,111,81,96.421,50.5,78.5,50.5Z" transform="translate(0 0.49)"/></g><g transform="translate(1120 477.494)"><path class="e" d="M160,160H0V0H160V160ZM78.5,50.5C60.58,50.5,46,64.182,46,81s14.58,30.5,32.5,30.5S111,97.818,111,81,96.421,50.5,78.5,50.5Z" transform="translate(0 -0.258)"/></g><path class="d" d="M37,160H0a161.179,161.179,0,0,1,3.251-32.245A159.122,159.122,0,0,1,27.325,70.542,160.466,160.466,0,0,1,97.72,12.573a159.194,159.194,0,0,1,30.033-9.323A161.181,161.181,0,0,1,160,0l0,43h-6A117.132,117.132,0,0,0,37,160Z" transform="translate(1120 639.235) rotate(-90)"/><path class="c" d="M160,0h0a0,0,0,0,1,0,0V160a0,0,0,0,1,0,0H0a0,0,0,0,1,0,0v0A160,160,0,0,1,160,0Z" transform="translate(1120 320.235)"/><path class="c" d="M37,160H0a161.179,161.179,0,0,1,3.251-32.245A159.122,159.122,0,0,1,27.325,70.542,160.466,160.466,0,0,1,97.72,12.573a159.194,159.194,0,0,1,30.033-9.323A161.181,161.181,0,0,1,160,0l0,43h-6A117.132,117.132,0,0,0,37,160Z" transform="translate(800 642.235) rotate(-90)"/><path class="c" d="M37,160H0a161.179,161.179,0,0,1,3.251-32.245A159.122,159.122,0,0,1,27.325,70.542,160.466,160.466,0,0,1,97.72,12.573a159.194,159.194,0,0,1,30.033-9.323A161.181,161.181,0,0,1,160,0l0,43h-6A117.132,117.132,0,0,0,37,160Z" transform="translate(962 637.235)"/><path class="d" d="M157.726,157.727H0L157.726,0V157.726Z" transform="translate(963 481.763)"/><path class="e" d="M157.726,157.727H0L157.726,0V157.726Z" transform="translate(1122 318.001) rotate(-90)"/><g transform="translate(800 639.236)"><path class="b" d="M160,160H0V0H160V160ZM78.5,50.5C60.58,50.5,46,64.182,46,81s14.58,30.5,32.5,30.5S111,97.818,111,81,96.421,50.5,78.5,50.5Z" transform="translate(0 0)"/></g><path class="e" d="M157.726,157.727H0L157.726,0V157.726Z" transform="translate(1117.726 641.51) rotate(90)"/><path class="d" d="M160,0h0a0,0,0,0,1,0,0V160a0,0,0,0,1,0,0H0a0,0,0,0,1,0,0v0A160,160,0,0,1,160,0Z" transform="translate(1280 639.235) rotate(90)"/></g></svg>